<svg id="outputsvg" xmlns="http://www.w3.org/2000/svg" style="transform: none; transform-origin: 50% 50%; cursor: move; display: inline; transition: none 0s ease 0s;" width="516" height="520" viewBox="0 0 6880 6920" preserveAspectRatio="xMidYMid meet" title="icon_large.svg (7KB)"><g id="layer101" fill="#190b06" stroke="none">  <path d="M3130 6914 c-19 -2 -78 -9 -130 -15 -52 -5 -130 -17 -174 -25 -43 -8 -102 -14 -130 -14 -91 0 -389 -90 -612 -186 -757 -323 -1373 -903 -1743 -1643 -147 -293 -265 -638 -281 -821 -4 -52 -15 -140 -24 -195 -27 -173 -36 -312 -36 -555 0 -243 9 -382 36 -555 9 -55 20 -143 24 -195 16 -183 134 -528 281 -821 370 -740 986 -1320 1743 -1643 223 -96 521 -186 612 -186 28 0 87 -6 130 -14 187 -35 283 -41 614 -41 331 0 427 6 614 41 43 8 102 14 130 14 91 0 389 90 612 186 757 323 1373 903 1743 1643 147 293 265 638 281 821 4 52 15 140 24 195 27 173 36 312 36 555 0 243 -9 382 -36 555 -9 55 -20 143 -24 195 -16 183 -134 528 -281 821 -370 740 -986 1320 -1743 1643 -223 95 -521 186 -611 186 -29 0 -77 5 -106 10 -175 34 -276 42 -589 45 -179 2 -341 1 -360 -1z"></path>  </g> <g id="layer102" fill="#5b4a0a" stroke="none">  <path d="M3130 6914 c-19 -2 -78 -9 -130 -15 -52 -5 -130 -17 -174 -25 -43 -8 -102 -14 -130 -14 -91 0 -389 -90 -612 -186 -757 -323 -1373 -903 -1743 -1643 -147 -293 -265 -638 -281 -821 -4 -52 -15 -140 -24 -195 -27 -173 -36 -312 -36 -555 0 -243 9 -382 36 -555 9 -55 20 -143 24 -195 16 -183 134 -528 281 -821 370 -740 986 -1320 1743 -1643 223 -96 521 -186 612 -186 28 0 87 -6 130 -14 187 -35 283 -41 614 -41 331 0 427 6 614 41 43 8 102 14 130 14 91 0 389 90 612 186 757 323 1373 903 1743 1643 147 293 265 638 281 821 4 52 15 140 24 195 27 173 36 312 36 555 0 243 -9 382 -36 555 -9 55 -20 143 -24 195 -16 183 -134 528 -281 821 -370 740 -986 1320 -1743 1643 -223 95 -521 186 -611 186 -29 0 -77 5 -106 10 -175 34 -276 42 -589 45 -179 2 -341 1 -360 -1z m739 -128 c900 -118 1705 -596 2256 -1340 117 -159 195 -287 290 -479 179 -358 282 -699 332 -1088 24 -187 24 -651 0 -838 -50 -389 -153 -730 -332 -1088 -95 -192 -173 -320 -290 -479 -560 -756 -1376 -1234 -2300 -1346 -146 -17 -624 -17 -770 0 -924 112 -1740 590 -2300 1346 -223 303 -414 690 -515 1046 -96 340 -124 553 -124 940 0 387 28 600 124 940 74 260 227 606 371 835 443 709 1149 1239 1933 1454 182 50 365 86 511 100 61 6 126 13 145 15 85 10 552 -3 669 -18z"></path>  <path d="M1305 5613 c-32 -8 -45 -24 -45 -52 0 -22 31 -58 155 -181 85 -84 168 -162 184 -172 71 -45 101 14 82 162 -33 256 -23 244 -214 247 -78 1 -151 -1 -162 -4z"></path>  <path d="M2190 5607 c-23 -8 -37 -20 -41 -37 -11 -38 -10 -263 1 -338 5 -37 14 -155 20 -262 6 -107 14 -208 17 -223 3 -15 31 -56 62 -90 80 -89 122 -150 172 -247 41 -81 49 -115 68 -260 5 -36 12 -73 16 -83 11 -27 50 -31 140 -13 121 23 177 20 335 -21 30 -8 120 -30 200 -49 80 -20 159 -39 177 -43 39 -11 78 -4 95 17 16 19 16 157 0 452 -13 248 -14 613 -2 915 7 185 6 214 -9 245 -10 21 -26 37 -41 41 -47 13 -1172 9 -1210 -4z"></path>  <path d="M3989 5609 c-53 -20 -94 -176 -86 -322 8 -133 24 -278 42 -387 9 -52 20 -124 25 -160 12 -90 28 -177 39 -214 5 -17 14 -65 21 -106 14 -88 36 -175 53 -210 15 -29 48 -37 66 -17 18 23 43 124 52 217 13 140 19 182 34 255 8 39 19 104 25 145 16 113 29 196 45 285 8 44 19 114 25 155 6 41 16 104 22 140 6 36 12 93 12 127 1 96 -2 98 -192 100 -87 1 -169 -2 -183 -8z"></path>  <path d="M4850 5607 c-32 -11 -37 -18 -57 -82 -30 -97 -48 -351 -39 -537 5 -79 12 -237 16 -353 9 -222 26 -462 36 -507 3 -15 10 -84 15 -155 29 -393 39 -454 80 -486 16 -12 50 -39 74 -59 25 -20 61 -40 80 -44 79 -15 122 19 180 140 91 191 240 388 383 508 143 119 227 166 383 216 120 39 191 51 342 61 145 9 158 17 139 87 -47 176 -207 525 -331 722 -124 197 -310 439 -368 478 -26 18 -53 19 -463 21 -320 2 -444 -1 -470 -10z"></path>  <path d="M828 5263 c-47 -50 -168 -254 -248 -418 -156 -318 -244 -600 -302 -975 -19 -125 -22 -185 -22 -430 0 -307 12 -429 70 -690 131 -586 436 -1142 859 -1565 423 -423 980 -729 1565 -859 247 -54 403 -70 690 -70 287 0 443 16 690 70 585 130 1142 436 1565 859 423 423 728 979 859 1565 66 298 91 653 67 940 -20 234 -28 244 -181 237 -119 -5 -204 -40 -279 -115 -111 -111 -143 -223 -171 -612 -20 -271 -28 -324 -64 -440 -20 -63 -47 -151 -61 -195 -57 -191 -79 -234 -191 -371 -142 -173 -285 -325 -356 -376 -42 -31 -73 -64 -105 -116 -84 -135 -208 -222 -316 -222 -57 0 -155 33 -206 69 -16 12 -51 53 -76 91 -70 105 -67 105 -198 32 -127 -71 -181 -69 -677 26 -304 59 -431 61 -640 10 -207 -51 -260 -58 -418 -58 -133 0 -242 10 -322 31 -19 5 -63 15 -98 24 -86 20 -172 55 -325 131 -285 142 -516 344 -693 609 -143 212 -146 225 -141 620 2 266 7 331 38 540 32 217 56 310 125 487 l56 143 -13 75 c-15 90 -18 183 -5 190 19 10 49 -103 50 -185 0 -73 -3 -87 -37 -154 -36 -72 -51 -123 -78 -266 -17 -91 -18 -785 -1 -827 14 -35 53 -38 74 -5 35 53 41 90 68 369 5 54 11 102 15 107 3 6 10 52 16 103 26 247 45 392 58 468 7 36 16 88 21 115 19 107 22 153 10 177 -16 30 -74 115 -205 303 -112 161 -214 308 -328 475 -46 66 -80 106 -92 108 -12 2 -31 -9 -47 -25z"></path>  </g> <g id="layer103" fill="#fce379" stroke="none">  <path d="M1345 5593 c-24 -6 -55 -32 -55 -46 0 -6 68 -79 152 -164 161 -162 189 -179 208 -127 16 41 11 202 -8 264 -15 48 -22 57 -52 67 -34 12 -205 16 -245 6z"></path>  <path d="M2213 5593 c-12 -2 -27 -10 -33 -18 -19 -23 -22 -113 -10 -265 6 -80 15 -208 20 -285 5 -77 14 -178 19 -224 9 -78 13 -87 48 -125 58 -62 93 -111 155 -218 65 -111 75 -142 88 -253 10 -95 25 -133 56 -141 12 -3 54 2 93 11 104 26 182 17 460 -54 134 -34 257 -61 274 -59 50 5 59 34 51 158 -3 58 -8 406 -10 774 -3 592 -5 671 -19 685 -14 14 -83 16 -593 17 -317 1 -587 0 -599 -3z"></path>  <path d="M4001 5587 c-32 -11 -36 -17 -53 -82 -16 -59 -18 -97 -14 -245 7 -240 19 -328 102 -760 39 -202 56 -240 98 -224 19 7 36 57 36 108 0 22 7 74 15 116 8 41 19 109 25 150 12 83 23 145 44 265 14 82 27 159 45 275 6 36 18 106 27 155 8 50 16 122 17 160 l2 70 -35 12 c-45 15 -264 16 -309 0z"></path>  <path d="M4871 5587 c-30 -10 -38 -20 -54 -66 -10 -30 -25 -126 -34 -215 -14 -140 -14 -195 -4 -416 7 -140 17 -309 23 -375 5 -66 14 -183 19 -260 16 -256 53 -624 68 -690 11 -47 80 -115 149 -147 83 -38 121 -8 205 160 101 201 216 350 374 482 207 173 420 254 706 269 170 9 171 10 133 128 -110 342 -315 712 -558 1007 -118 145 -60 131 -561 133 -318 2 -441 -1 -466 -10z"></path>  <path d="M822 5248 c-35 -39 -149 -227 -217 -359 -230 -450 -349 -945 -349 -1449 0 -846 334 -1651 933 -2251 507 -507 1130 -810 1869 -911 220 -29 544 -29 764 0 739 101 1362 404 1869 911 243 244 443 519 594 821 249 496 376 1113 336 1625 -16 191 -26 241 -56 261 -36 24 -113 28 -189 10 -131 -31 -216 -97 -274 -213 -43 -84 -82 -268 -82 -382 0 -34 -5 -92 -10 -129 -6 -37 -14 -121 -19 -187 -9 -124 -12 -136 -117 -450 -67 -202 -93 -252 -202 -387 -109 -134 -306 -339 -363 -377 -19 -13 -61 -61 -92 -105 -69 -99 -103 -134 -182 -181 -59 -36 -62 -36 -150 -33 -71 2 -100 8 -134 26 -67 35 -120 84 -166 154 -47 72 -61 75 -128 29 -132 -90 -206 -94 -547 -27 -334 66 -433 80 -560 79 -88 0 -133 -5 -190 -22 -213 -62 -241 -65 -480 -65 -193 0 -238 3 -320 21 -276 62 -575 215 -820 419 -153 127 -239 231 -361 435 l-79 134 4 425 c4 407 11 537 34 625 6 22 16 72 22 110 14 84 72 273 113 370 l29 70 -16 75 c-22 105 -21 191 4 240 11 22 20 50 20 63 0 13 -26 61 -57 108 -259 381 -350 511 -370 527 -24 17 -37 15 -61 -10z"></path>  <path d="M1377 4474 c-4 -4 -4 -55 0 -114 6 -106 6 -109 -26 -176 -83 -175 -108 -321 -117 -684 -4 -136 -1 -180 14 -250 14 -64 23 -86 36 -88 10 -2 22 0 28 6 11 11 36 152 48 277 30 288 79 655 113 832 18 92 12 126 -28 169 -31 32 -54 42 -68 28z"></path>  </g> </svg>